<svg width="0" height="0" class="hidden">
  <symbol fill="none" xmlns="http://www.w3.org/2000/svg" viewBox="0 0 24 24" id="arrow-left">
    <path d="M20 12H4" stroke="#212121" stroke-opacity="0.8" stroke-linecap="round" stroke-linejoin="round"></path>
    <path d="M10 18L4 12L10 6" stroke="#212121" stroke-opacity="0.8" stroke-linecap="round" stroke-linejoin="round"></path>
  </symbol>
  <symbol fill="none" xmlns="http://www.w3.org/2000/svg" viewBox="0 0 24 24" id="camera_alt-black-24dp 1">
    <g clip-path="url(#clip0_36_0)">
      <path d="M11.9998 15.2C13.7671 15.2 15.1998 13.7673 15.1998 12C15.1998 10.2327 13.7671 8.79999 11.9998 8.79999C10.2325 8.79999 8.7998 10.2327 8.7998 12C8.7998 13.7673 10.2325 15.2 11.9998 15.2Z" fill="#BDBDBD"></path>
      <path d="M9 2L7.17 4H4C2.9 4 2 4.9 2 6V18C2 19.1 2.9 20 4 20H20C21.1 20 22 19.1 22 18V6C22 4.9 21.1 4 20 4H16.83L15 2H9ZM12 17C9.24 17 7 14.76 7 12C7 9.24 9.24 7 12 7C14.76 7 17 9.24 17 12C17 14.76 14.76 17 12 17Z" fill="#BDBDBD"></path>
    </g>
    <defs>
      <clipPath id="clip0_36_0">
        <rect width="24" height="24" fill="white"></rect>
      </clipPath>
    </defs>
  </symbol>
  <symbol fill="none" xmlns="http://www.w3.org/2000/svg" viewBox="0 0 11 11" id="delete">
    <path fill-rule="evenodd" clip-rule="evenodd" d="M1.25736 0.550253L0.550258 1.25736L4.7929 5.5L0.550258 9.74264L1.25736 10.4497L5.50001 6.20711L9.74265 10.4497L10.4498 9.74264L6.20711 5.5L10.4498 1.25736L9.74265 0.550253L5.50001 4.79289L1.25736 0.550253Z" fill="#BDBDBD"></path>
  </symbol>
  <symbol fill="none" xmlns="http://www.w3.org/2000/svg" viewBox="0 0 24 24" id="log-out">
    <path d="M10 22H5C3.89543 22 3 21.1046 3 20V4C3 2.89543 3.89543 2 5 2H10" stroke="#BDBDBD" stroke-linecap="round" stroke-linejoin="round"></path>
    <path d="M17 16L21 12L17 8" stroke="#BDBDBD" stroke-linecap="round" stroke-linejoin="round"></path>
    <path d="M21 12H9" stroke="#BDBDBD" stroke-linecap="round" stroke-linejoin="round"></path>
  </symbol>
  <symbol fill="none" xmlns="http://www.w3.org/2000/svg" viewBox="0 0 14 14" id="plus-icon">
    <path fill-rule="evenodd" clip-rule="evenodd" d="M7.5 0.5H6.5V6.5H0.5V7.5H6.5V13.5H7.5V7.5H13.5V6.5H7.5V0.5Z" fill="white"></path>
  </symbol>
  <symbol fill="none" xmlns="http://www.w3.org/2000/svg" viewBox="0 0 24 24" id="posts-icon">
    <rect width="24" height="24" fill="white"></rect>
    <path fill-rule="evenodd" clip-rule="evenodd" d="M3 3H10V10H3V3Z" stroke="#212121" stroke-opacity="0.8" stroke-linecap="round" stroke-linejoin="round"></path>
    <path fill-rule="evenodd" clip-rule="evenodd" d="M14 3H21V10H14V3Z" stroke="#212121" stroke-opacity="0.8" stroke-linecap="round" stroke-linejoin="round"></path>
    <path fill-rule="evenodd" clip-rule="evenodd" d="M14 14H21V21H14V14Z" stroke="#212121" stroke-opacity="0.8" stroke-linecap="round" stroke-linejoin="round"></path>
    <path fill-rule="evenodd" clip-rule="evenodd" d="M3 14H10V21H3V14Z" stroke="#212121" stroke-opacity="0.8" stroke-linecap="round" stroke-linejoin="round"></path>
  </symbol>
  <symbol fill="none" xmlns="http://www.w3.org/2000/svg" viewBox="0 0 24 24" id="trash-2">
    <path d="M3 6H5H21" stroke="#BDBDBD" stroke-linecap="round" stroke-linejoin="round"></path>
    <path d="M19.5 6C19.5 5.72386 19.2761 5.5 19 5.5C18.7239 5.5 18.5 5.72386 18.5 6H19.5ZM5.5 6C5.5 5.72386 5.27614 5.5 5 5.5C4.72386 5.5 4.5 5.72386 4.5 6H5.5ZM7.5 6C7.5 6.27614 7.72386 6.5 8 6.5C8.27614 6.5 8.5 6.27614 8.5 6H7.5ZM15.5 6C15.5 6.27614 15.7239 6.5 16 6.5C16.2761 6.5 16.5 6.27614 16.5 6H15.5ZM18.5 6V20H19.5V6H18.5ZM18.5 20C18.5 20.8284 17.8284 21.5 17 21.5V22.5C18.3807 22.5 19.5 21.3807 19.5 20H18.5ZM17 21.5H7V22.5H17V21.5ZM7 21.5C6.17157 21.5 5.5 20.8284 5.5 20H4.5C4.5 21.3807 5.61929 22.5 7 22.5V21.5ZM5.5 20V6H4.5V20H5.5ZM8.5 6V4H7.5V6H8.5ZM8.5 4C8.5 3.17157 9.17157 2.5 10 2.5V1.5C8.61929 1.5 7.5 2.61929 7.5 4H8.5ZM10 2.5H14V1.5H10V2.5ZM14 2.5C14.8284 2.5 15.5 3.17157 15.5 4H16.5C16.5 2.61929 15.3807 1.5 14 1.5V2.5ZM15.5 4V6H16.5V4H15.5Z" fill="#BDBDBD"></path>
    <path d="M10 11V17" stroke="#BDBDBD" stroke-linecap="round" stroke-linejoin="round"></path>
    <path d="M14 11V17" stroke="#BDBDBD" stroke-linecap="round" stroke-linejoin="round"></path>
  </symbol>
  <symbol fill="none" xmlns="http://www.w3.org/2000/svg" viewBox="0 0 24 24" id="user">
    <path d="M20 21V19C20 16.7909 18.2091 15 16 15H8C5.79086 15 4 16.7909 4 19V21" stroke="#212121" stroke-opacity="0.8" stroke-linecap="round" stroke-linejoin="round"></path>
    <path fill-rule="evenodd" clip-rule="evenodd" d="M12 11C14.2091 11 16 9.20914 16 7C16 4.79086 14.2091 3 12 3C9.79086 3 8 4.79086 8 7C8 9.20914 9.79086 11 12 11Z" stroke="#212121" stroke-opacity="0.8" stroke-linecap="round" stroke-linejoin="round"></path>
  </symbol>
</svg>